<?xml version="1.0" standalone="no"?>
<!DOCTYPE svg PUBLIC "-//W3C//DTD SVG 20010904//EN"
 "http://www.w3.org/TR/2001/REC-SVG-20010904/DTD/svg10.dtd">
<svg version="1.0" xmlns="http://www.w3.org/2000/svg"
 width="500.000000pt" height="500.000000pt" viewBox="0 0 500.000000 500.000000"
 preserveAspectRatio="xMidYMid meet">

<g transform="translate(0.000000,500.000000) scale(0.100000,-0.100000)"
fill="#000000" stroke="none">
<path d="M3320 4439 c-122 -7 -173 -13 -365 -39 -101 -14 -318 -54 -430 -80
-83 -19 -444 -142 -535 -182 -14 -6 -34 -14 -45 -19 -11 -4 -55 -24 -98 -43
-42 -20 -81 -36 -86 -36 -5 0 -11 -3 -13 -7 -1 -5 -25 -19 -53 -31 -27 -13
-79 -43 -115 -67 -98 -65 -198 -115 -230 -115 -15 0 -61 13 -101 29 -41 16
-101 37 -134 46 -33 10 -95 28 -138 41 -123 39 -234 57 -342 57 -83 0 -107 -4
-142 -21 -23 -12 -49 -22 -57 -22 -22 0 -113 -105 -126 -147 -17 -49 -8 -198
14 -244 9 -20 46 -66 81 -103 98 -102 108 -119 306 -501 133 -258 168 -329
247 -505 26 -59 87 -213 107 -272 18 -54 29 -138 29 -218 1 -168 -58 -474
-115 -598 -11 -24 -27 -61 -35 -82 -9 -22 -20 -40 -25 -40 -5 0 -9 -6 -9 -14
0 -8 -16 -31 -35 -52 -19 -22 -35 -42 -35 -46 0 -4 -13 -21 -29 -38 -16 -18
-35 -44 -42 -58 -8 -15 -17 -29 -21 -32 -3 -3 -15 -39 -25 -80 -37 -141 -5
-260 92 -348 47 -42 135 -90 180 -97 11 -2 37 -6 59 -9 21 -4 41 -8 45 -10 3
-3 26 -7 50 -11 24 -3 53 -10 65 -14 56 -21 151 -22 231 -1 73 18 122 37 135
50 3 3 19 14 35 24 38 24 163 126 235 191 31 27 76 66 100 85 24 19 52 43 62
52 10 10 20 18 23 18 3 0 18 11 33 26 15 14 56 46 92 72 36 25 67 50 68 54 2
4 8 8 12 8 11 0 144 92 148 102 2 4 9 8 15 8 7 0 39 19 72 41 129 88 448 226
625 270 202 50 473 76 491 47 13 -20 12 -21 -36 -74 -24 -27 -44 -55 -45 -61
0 -7 -4 -13 -9 -13 -4 0 -18 -23 -30 -51 -23 -58 -28 -148 -10 -209 28 -93
171 -190 348 -236 200 -52 363 -13 534 127 162 133 196 150 337 173 l65 11 3
142 c2 117 0 143 -11 143 -40 0 -197 -33 -260 -55 -91 -32 -133 -60 -233 -156
-108 -103 -164 -131 -274 -137 -59 -3 -105 1 -150 13 -89 23 -210 74 -210 89
0 26 72 124 112 152 54 38 147 78 220 94 l56 13 -33 51 c-115 180 -159 324
-157 511 1 164 45 302 132 420 96 130 238 212 440 253 85 18 90 20 47 21 -78
2 -185 -27 -287 -77 -217 -106 -340 -297 -365 -567 -6 -62 4 -183 21 -251 l6
-24 -148 0 c-268 0 -474 -29 -716 -100 -429 -125 -811 -361 -1228 -757 -63
-60 -133 -123 -155 -140 -55 -42 -136 -81 -184 -89 -44 -7 -198 13 -207 27 -7
12 56 129 69 129 6 0 6 4 0 13 -6 6 -16 35 -23 62 -20 77 -57 155 -73 155 -8
0 -40 -13 -71 -29 -71 -38 -72 -26 -12 78 129 225 188 381 221 591 23 142 38
341 31 423 -12 167 -153 505 -411 986 -150 281 -247 427 -376 565 l-77 82 36
24 c52 36 193 40 335 10 176 -37 390 -107 510 -167 l48 -24 50 35 c68 50 242
147 374 210 509 245 931 365 1480 421 193 20 625 20 808 -1 166 -18 363 -53
535 -94 68 -17 125 -30 128 -30 2 0 4 38 4 85 0 61 -4 85 -12 86 -25 3 -53 8
-78 14 -14 3 -56 12 -95 20 -38 8 -79 17 -90 19 -25 6 -81 14 -143 22 -26 3
-63 8 -82 10 -233 29 -666 40 -930 23z"/>
<path d="M3385 4094 c-22 -2 -92 -9 -155 -14 -479 -45 -916 -171 -1349 -390
-302 -153 -521 -296 -667 -437 -106 -102 -105 -91 -18 -219 85 -123 174 -280
227 -399 52 -116 124 -300 132 -335 4 -16 10 -30 15 -30 4 0 29 38 55 85 55
98 141 186 277 282 334 237 751 427 1153 523 129 31 355 74 447 85 l57 6 108
121 c231 258 448 427 776 603 l78 42 -33 7 c-278 56 -394 67 -738 71 -179 1
-343 1 -365 -1z m-1399 -946 l-91 -293 -49 -3 c-37 -2 -47 0 -44 10 5 11 161
514 174 561 4 13 16 17 53 17 l48 0 -91 -292z m-216 133 c0 -21 -6 -43 -12
-48 -7 -6 -48 -23 -91 -38 -43 -15 -80 -31 -82 -35 -2 -4 37 -23 88 -41 l92
-34 3 -43 c2 -29 -1 -42 -10 -42 -7 0 -77 26 -156 57 l-143 57 3 45 3 45 140
57 c77 32 146 58 153 58 8 1 12 -13 12 -38z m510 -19 l145 -58 3 -45 3 -45
-143 -57 c-79 -31 -149 -57 -156 -57 -9 0 -12 13 -10 42 l3 43 92 34 c51 18
90 37 88 41 -2 4 -39 20 -82 35 -43 15 -84 32 -90 38 -18 13 -16 87 2 87 0 0
66 -26 145 -58z"/>
<path d="M1944 1919 c-27 -30 -87 -63 -169 -94 -38 -14 -78 -33 -88 -43 -36
-32 -69 -102 -87 -185 -10 -45 -26 -102 -34 -126 -9 -24 -16 -47 -16 -52 0 -4
25 3 55 17 30 14 84 34 120 44 114 33 146 69 185 212 22 80 59 248 56 248 -2
0 -11 -9 -22 -21z m-159 -214 c30 -29 31 -49 5 -75 -24 -24 -63 -26 -84 -4
-24 23 -20 70 6 88 31 22 45 20 73 -9z"/>
</g>
</svg>
